<?xml version="1.0" encoding="utf-8"?>
<!-- Generator: Adobe Illustrator 15.1.0, SVG Export Plug-In . SVG Version: 6.00 Build 0)  -->
<!DOCTYPE svg PUBLIC "-//W3C//DTD SVG 1.1//EN" "http://www.w3.org/Graphics/SVG/1.1/DTD/svg11.dtd">
<svg version="1.1" id="Layer_1" xmlns="http://www.w3.org/2000/svg" xmlns:xlink="http://www.w3.org/1999/xlink" x="0px" y="0px"
	 width="566px" height="186px" viewBox="0 0 566 186" enable-background="new 0 0 566 186" xml:space="preserve">
<g>
	<path fill-rule="evenodd" clip-rule="evenodd" fill="#FFFFFF" d="M565.92,0c0,62,0,124,0,186c-188.639,0-377.283,0-565.92,0
		C0,124,0,62,0,0C188.639,0,377.283,0,565.92,0z M1.92,2.64c0,60.479,0,120.96,0,181.44c49.6,0,99.2,0,148.8,0
		c34.326-22.256,69.408-45.486,103.68-67.68c17.378-11.254,34.679-22.867,51.84-33.84c3.027-1.937,6.541-4.004,9.12-6
		c-0.063,0.048,1.353-0.3,0.479-0.72c-3.68,0-7.359,0-11.04,0c0.18-11.54-0.382-22.338-0.24-33.84
		c-1.091,0.476-1.404,1.839-1.92,2.88c-4.128,8.348-8.141,17.587-12.479,25.44c-2.96,0-5.92,0-8.88,0
		c-4.887-9.433-9.171-19.469-14.16-28.8c-0.65,10.95,0.189,23.39-0.48,34.32c-4.16,0-8.32,0-12.48,0
		c0.679-17.949-0.673-37.145,0.48-54.96c5.04,0,10.08,0,15.12,0c5.444,10.637,10.59,21.57,16.08,32.16
		c4.05-8.059,8.144-16.44,12-24.24c1.326-2.681,2.497-5.559,4.32-7.92c5.04,0,10.08,0,15.12,0c0,18,0,36,0,54
		c1.309-0.154,2.517-0.969,3.6-1.68c3.569-2.341,7.025-4.642,10.561-6.96c23.381-15.333,47.197-30.661,70.319-46.08
		c8.679-5.788,17.996-11.385,26.4-17.04c0.408-0.275,1.917-1.007,0.96-1.2c-142.324,0-284.636,0-426.96,0
		C1.88,1.96,1.899,2.299,1.92,2.64z M406.8,19.92c-0.24,0-0.479,0-0.72,0c-7.038,19.362-15.657,37.143-22.32,56.88
		c14.96,0,29.92,0,44.88,0C422.286,56.914,413.646,39.314,406.8,19.92z M509.28,28.56c-1.287-1.63-4.989-7.478-6.72-8.16
		c-3.57-1.407-7.988,0.883-11.761,0c-0.497,18.143-0.125,37.155-0.239,55.68c4.56,0,9.119,0,13.68,0
		c0.13-10.67-0.278-21.878,0.24-32.16c6.035,8.246,12.925,16.086,18.72,24.24c0.966,1.359,2.073,2.689,3.12,4.08
		c0.99,1.315,1.521,3.346,3.359,3.84c3.484,0.443,8.499,0.339,12,0c0-18.56,0-37.12,0-55.68c-4.479,0-8.96,0-13.439,0
		c-0.158,11.198,0.411,21.669,0.24,32.88C522.595,45.819,515.629,36.602,509.28,28.56z M508.32,107.28c0,16.08,0,32.159,0,48.239
		c11.52,0,23.04,0,34.56,0c0.516-3.324,0.112-7.567,0.24-11.279c-7.561-0.172-14.454,0.392-21.36-0.24c0-12.48,0-24.96,0-37.44
		c-4.319,0-8.64,0-12.96,0C508.498,106.658,508.31,106.869,508.32,107.28z M286.56,106.8c-12.646,1.033-23.343,10.525-24.24,23.04
		c-0.793,11.08,3.955,16.065,9.12,21.84c1.52,0.414,2.639,1.657,4.08,2.4c1.407,0.726,2.964,1.395,4.56,1.92
		c7.489,2.466,15.009,1.024,22.08-1.2c3.001-0.944,7.511-1.989,8.399-4.8c0.386-1.219,0.051-2.503,0-3.84
		c-0.163-4.366,0.122-9.769,0-14.88c-3.92,0-7.84,0-11.76,0c0,4.239,0,8.479,0,12.72c-2.658,0.693-4.075,1.875-6.72,2.16
		c-9.716,1.047-16.04-5.955-16.08-14.16c-0.039-7.938,6.241-13.644,12.96-14.16c5.87-0.451,10.238,2.124,14.4,5.28
		c1.461-1.298,2.865-2.788,4.08-4.32c1.238-1.563,2.565-3.073,3.6-4.8C305.109,109.42,296.567,105.982,286.56,106.8z M385.92,156.24
		c13.52,0,27.04,0,40.561,0c0-3.44,0-6.88,0-10.32c-9.476-0.176-18.308,0.404-27.12-0.24c0-2.88,0-5.76,0-8.64c8,0,16,0,24,0
		c0-3.44,0-6.88,0-10.32c-7.925-0.155-16.475,0.314-24-0.239c0.159-2.722-0.319-6.079,0.239-8.4c8.721,0,17.44,0,26.16,0
		c0-3.521,0-7.04,0-10.561c-13.12,0-26.24,0-39.359,0C385.346,122.866,386.192,140.112,385.92,156.24z"/>
	<path fill-rule="evenodd" clip-rule="evenodd" fill="#FFFFFF" d="M31.44,20.88c4.56,0,9.12,0,13.68,0c0,7.28,0,14.56,0,21.84
		c6.374,1.066,14.681,0.199,21.84,0.48c1.055-6.545,0.207-14.993,0.48-22.32c4.8,0,9.6,0,14.4,0c0,18.32,0,36.64,0,54.96
		c-4.8,0-9.6,0-14.4,0c0-6.96,0-13.92,0-20.88c-6.989-0.903-14.267-0.062-21.84-0.24c-1.03,6.386-0.132,14.667-0.48,21.12
		c-4.72,0-9.44,0-14.16,0c0.156-18.004-0.314-36.635,0.24-54.24C31.179,21.259,31.16,20.92,31.44,20.88z"/>
	<path fill-rule="evenodd" clip-rule="evenodd" fill="#FFFFFF" d="M143.28,20.88c4.64,0,9.28,0,13.92,0c0,6.102,0,13.373,0,20.64
		c0,7.314-0.744,14.513,1.92,18.72c3.297,5.207,12.547,6.098,16.8,0.96c0.829-1.001,1.984-2.355,2.4-3.6
		c1.425-4.267,0.48-12.676,0.48-18.24c0-6.578,0-12.977,0-18.48c4.8,0,9.6,0,14.4,0c-0.095,7.976,0.125,16.496,0,24.72
		c-0.124,8.121-0.364,15.9-3.6,21.12c-5.069,8.176-17.6,12.201-30,8.88c-3.877-1.039-6.694-2.777-9.36-4.8
		c-1.076-0.816-3.023-3.028-3.84-4.32c-6.859-10.848-2.106-28.686-3.36-44.88C143.02,21.259,143,20.92,143.28,20.88z"/>
	<path fill-rule="evenodd" clip-rule="evenodd" fill="#FFFFFF" d="M401.28,42.24c2.801-0.56,6.639-0.081,9.84-0.24
		c-1.398,4.362-3.437,8.083-4.8,12.48C404.403,50.637,402.978,46.303,401.28,42.24z"/>
	<path fill-rule="evenodd" clip-rule="evenodd" fill="#FFFFFF" d="M76.08,162c-13.784,0.619-29.368,0.709-43.44,0.24
		c-0.047-2.556,1.301-4.863,2.16-7.2c5.861-15.95,13.468-32.091,19.2-48.24c0.128-0.361,0.073-0.659,0.48-0.72c0.16,0,0.32,0,0.48,0
		C61.086,125.634,70.123,142.277,76.08,162z M49.68,140.64c2.97,0.73,6.541,0.226,9.84,0c-1.799-3.276-2.947-9.187-5.52-12.479
		C52.891,132.496,50.044,136.356,49.68,140.64z"/>
	<path fill-rule="evenodd" clip-rule="evenodd" fill="#FFFFFF" d="M157.44,107.76c7.676,9.524,15.075,19.325,22.8,28.8
		c0.56-9.12,0.08-19.279,0.24-28.8c4.08,0,8.16,0,12.24,0c0,16.16,0,32.32,0,48.48c-3.76,0-7.52,0-11.28,0
		c-8.089-9.271-15.072-19.648-23.28-28.8c0,9.6,0,19.199,0,28.8c-4,0-8,0-12,0c0-16.16,0-32.32,0-48.48
		C150.107,108.01,154.084,107.34,157.44,107.76z"/>
</g>
</svg>
