<?xml version="1.0" encoding="utf-8"?>
<!-- Generator: Adobe Illustrator 15.1.0, SVG Export Plug-In . SVG Version: 6.00 Build 0)  -->
<!DOCTYPE svg PUBLIC "-//W3C//DTD SVG 1.1//EN" "http://www.w3.org/Graphics/SVG/1.1/DTD/svg11.dtd">
<svg version="1.1" id="Layer_1" xmlns="http://www.w3.org/2000/svg" xmlns:xlink="http://www.w3.org/1999/xlink" x="0px" y="0px"
	 width="441px" height="166.08px" viewBox="0 0 441 166.08" enable-background="new 0 0 441 166.08" xml:space="preserve">
<rect y="0.08" fill-rule="evenodd" clip-rule="evenodd" fill="none" width="439" height="166"/>
<g>
	<path fill-rule="evenodd" clip-rule="evenodd" fill="#FFF200" d="M274.3,11.314c0.56,14.8,0.08,30.64,0.24,45.84
		c-1.778,0.222-3.335,0.665-4.319,1.68c-3.396-3.324-7.268-6.173-10.32-9.84C264.793,36.527,269.66,24.035,274.3,11.314z"/>
	<path fill-rule="evenodd" clip-rule="evenodd" fill="#39B54A" d="M275.74,12.994c4.627,12.014,8.71,24.569,13.2,36.72
		c-1.428,2.036-4.42,4.776-6.721,7.2c-0.531,0.56-1.827,2.365-2.16,2.4c-0.484,0.051-1.556-1.273-1.92-1.44
		c-1.055-0.483-1.571-0.104-2.399-0.72C275.74,42.434,275.74,27.715,275.74,12.994z"/>
	<path fill-rule="evenodd" clip-rule="evenodd" fill="#EF4136" d="M259.18,50.674c1.775,1.082,5.359,4.591,7.68,6.721
		c0.593,0.543,2.387,2.044,2.4,2.159c0.026,0.222-1.508,2.266-1.68,2.88c-0.262,0.937-0.285,1.332-0.24,2.641
		c-4.48,0-8.96,0-13.439,0C255.501,60.115,257.689,55.744,259.18,50.674z"/>
	<path fill-rule="evenodd" clip-rule="evenodd" fill="#1C75BC" d="M294.22,65.074c-4,0-8,0-12,0
		c-0.005-1.995-0.398-3.602-1.439-4.561c2.54-3.299,5.699-5.98,8.64-8.88C291.226,55.909,292.77,60.444,294.22,65.074z"/>
	<path fill-rule="evenodd" clip-rule="evenodd" fill="#ED1C24" d="M251.5,71.074c0-0.08,0-0.16,0-0.24
		c0.957-1.282,1.003-3.478,2.16-4.56c4.561,0,9.119,0,13.68,0c0.436,2.047,2.338,3.899,3.12,4.8
		C264.141,71.074,257.82,71.074,251.5,71.074z"/>
	<path fill-rule="evenodd" clip-rule="evenodd" fill="#662D91" d="M294.7,66.274c0.669,1.491,1.224,3.096,1.68,4.8
		c-5.68,0-11.36,0-17.04,0c-1.034-0.188,0.465-0.688,0.72-0.96c0.792-0.843,1.325-1.944,1.921-3.12c0-0.24,0-0.48,0-0.72
		C286.22,66.274,290.46,66.274,294.7,66.274z"/>
</g>
<g>
	<g>
		<g>
			<path fill-rule="evenodd" clip-rule="evenodd" fill="#FFFFFF" d="M0.356,0c78.784,0,157.578,0,236.36,0c0,28,0,56,0,84
				c-78.869,0-157.728,0-236.598,0c0-27.76,0-55.52,0-83.279C0.099,0.379,0.08,0.041,0.356,0z M50.292,38.16
				c-6.702-0.736-15.481,1.007-21.4-0.96c0-7.681,0-15.36,0-23.04c-4.597,0-9.195,0-13.792,0
				c-0.521,19.314-0.521,39.154-0.476,59.04c4.756,0,9.512,0,14.268,0c0.274-8.06-0.775-15.978,0.713-22.8
				c6.972,0.322,15.312-0.734,21.163,0.72c0,7.28,0,14.56,0,21.84c4.403,0.517,9.717,0.112,14.505,0.24c0-19.761,0-39.521,0-59.28
				c-4.756,0-9.512,0-14.267,0C50.378,21.362,51.895,31.152,50.292,38.16z M86.198,14.641c0.963,18.732-3.891,43.213,6.896,52.799
				c1.479,1.316,3.442,2.183,5.469,3.121c2.045,0.946,4.263,2.202,6.183,2.64c5.804,1.322,10.252,0.196,14.029-0.72
				c5.796-1.406,10.251-3.976,13.078-8.16c7.743-11.461,2.414-33.619,4.28-50.4c-4.835,0-9.67,0-14.506,0
				c-0.715,8.152,0.477,18.379,0.477,27.12c0,3.271,0.455,7.019-0.238,9.36c-0.719,2.428-3.369,4.227-5.707,5.279
				c-2.215-1.059-4.086-2.413-6.896-2.16c-2.495,0.226-4.083,2.245-6.183,2.641c-3.025-3.156-3.119-8.858-3.091-14.16
				c0.049-9.093,1.009-19.514,0.476-28.08c-4.676,0-9.354,0-14.029,0C86.158,13.961,86.177,14.299,86.198,14.641z M156.107,14.16
				c-1.184,19.016,0.41,39.418-0.477,58.8c4.201,0,8.402,0,12.604,0c0.529-11.545-0.109-24.271,0.476-35.76
				c5.073,9.359,9.104,19.771,13.554,29.76c3.091,0,6.183,0,9.273,0c3.606-7.056,6.984-15.445,10.225-22.8
				c1.074-2.439,1.815-5.229,3.805-6.721c0.02,11.9,0.396,23.441,0.237,35.521c4.069-0.133,8.683,0.283,12.365-0.239
				c0.411-19.186,0.181-39.02,0.238-58.561c-5.152,0-10.305,0-15.457,0c-5.697,10.889-10.195,22.989-15.932,33.84
				c-5.456-10.973-10.251-22.613-15.693-33.6C166.586,13.453,161.416,14.32,156.107,14.16z"/>
			<path fill-rule="evenodd" clip-rule="evenodd" fill="#FFFFFF" d="M0.356,83.2c78.784,0,157.578,0,236.36,0
				c0,27.28,0,54.56,0,81.84c-78.869,0-157.728,0-236.598,0c0-27.04,0-54.08,0-81.12C0.099,83.58,0.08,83.24,0.356,83.2z
				 M101.178,121.359c-1.173,3.441-2.789,6.893-2.854,10.32c2.901,1.231,7.409-1.574,10.463-0.24
				c-0.688,0.906-1.882,1.301-3.566,1.201c-0.17,4.33,6.039,2.225,6.896,5.52c-2.296,0.076-3.194-1.256-5.469-1.2
				c0.306,2.492,4.231,2.607,4.042,4.8c-2.363-0.174-2.437-2.66-4.993-2.64c-0.177,2.42,3.01,2.72,2.615,4.56
				c-2.235-0.463-2.3-3.119-4.519-3.6c-0.393,1.922,1.203,3.101,0.715,4.32c-1.311-0.357-1.685-1.66-1.666-3.36
				c-2.556-1.819-3.744-5.021-7.133-6c-0.906,6.125-4.781,9.254-4.518,16.56c14.284-0.143,29.145,0.297,43.039-0.24
				c-2.955-10.937-6.801-20.976-10.938-30.719c-3.169,0.979-6.029,1.866-7.847,4.08c-1.012,1.23-1.125,3.342-3.092,3.6
				c0.203-1.875,1.925-2.219,1.665-4.561c-2.605,0.25-2.62,3.115-5.707,2.881c0.668-2.207,3.694-2.032,4.042-4.561
				c-2.551-0.096-3.154,1.775-5.706,1.68c0.735-2.297,3.913-2.129,4.993-4.08c-1.628-0.945-4.468,0.816-5.707-0.479
				c0.563-1.66,2.84-0.716,4.281-0.96c1.984-0.338,3.156-1.299,3.804-2.641c-1.451-0.535-3.202-0.768-3.329-2.64
				c4.496-0.116,6.933,4.571,10.938,2.88c-1.076-4.186-2.678-8.322-4.041-12.48c-1.389-4.232-2.173-8.727-4.519-12.239
				c-0.304-0.013-0.329-0.308-0.714-0.24C108.673,101.011,104.638,111.213,101.178,121.359z M161.576,152.08
				c4.438,0,8.877,0,13.316,0c0-11.68,0-23.359,0-35.04c6.295,7.331,12.919,17.522,18.785,26.399
				c1.382,2.094,4.348,7.701,6.42,8.641c3.952,1.793,7.983-1.26,12.365,0c0-20.16,0-40.32,0-60.48c-4.519,0-9.036,0-13.555,0
				c-0.152,11.687,0.309,23.992-0.238,35.28c-5.923-7.798-12.616-17.866-18.785-26.64c-1.251-1.779-4.664-8.041-6.658-8.641
				c-3.603-1.082-7.696,0.824-11.176,0C161.083,110.943,161.793,131.98,161.576,152.08z"/>
		</g>
		<g>
			<path fill-rule="evenodd" clip-rule="evenodd" fill="#FFFFFF" d="M274.405,93.88c-14.447,1.283-24.874,16.218-23.778,32.16
				c0.603,8.778,4.564,15.609,9.036,21.601c5.995,3.598,12.501,9.229,22.352,6.719c3.091-0.787,6.432-2.256,9.512-3.359
				c3.327-1.192,6.321-2.643,7.608-5.279c-0.33-7.266-0.231-14.967-0.237-22.561c-3.884,0-7.768,0-11.651,0c0,5.04,0,10.08,0,15.12
				c-2.805,0.621-4.586,2.337-7.371,2.64c-7.324,0.796-12.154-4.363-14.029-9.84c1.972-2.561,6.317-3.42,6.42-6.96
				c0.113-3.933-4.521-5.082-5.707-8.64c2.586-4.281,6.396-8.131,12.364-8.16c5.824-0.029,9.149,3.681,12.842,6.24
				c3.003-3.209,5.687-6.739,7.608-11.041C293.304,97.255,285.402,92.903,274.405,93.88z"/>
			<path fill-rule="evenodd" clip-rule="evenodd" fill="#FFFFFF" d="M395.438,95.08c-0.548,19.286-0.084,39.596-0.237,59.279
				c30.288,0,4.19,0,34.479,0c0-4.639,0-9.279,0-13.92c-7.123-0.09-14.711,0.288-21.162-0.479c0-15.2,0-30.399,0-45.601
				c-4.281,0-8.562,0-12.841,0C395.399,94.4,395.419,94.739,395.438,95.08z"/>
			<path fill-rule="evenodd" clip-rule="evenodd" fill="#FFFFFF" d="M324.578,153.88c31.129,0,9.532,0,40.661,0
				c0-4.239,0-8.479,0-12.72c-8.517-0.736-18.832,0.9-26.87-0.721c0-3.279,0-6.56,0-9.84c7.927,0,15.853,0,23.779,0
				c0-4.16,0-8.319,0-12.479c-8.16,0.157-15.8-0.213-23.779-0.24c0.158-3.701-0.591-6.95,0.238-10.079c8.641,0,17.279,0,25.919,0
				c0-4.32,0-8.641,0-12.961c-13.078,0-26.157,0-39.234,0C323.889,113.344,324.875,134.26,324.578,153.88z"/>
		</g>
		<g>
			<path fill-rule="evenodd" clip-rule="evenodd" fill="#FFFFFF" d="M337.102,20.32c-1.585-2.327-4.295-7.492-6.658-8.4
				c-4.041-1.553-7.709,1.535-11.89,0.48c0,19.68,0,39.359,0,59.039c4.599,0,9.195,0,13.793,0
				c0.157-11.04-0.316-22.719,0.237-33.359c5.379,7.61,12.666,16.504,18.548,24.96c1.313,1.89,4.116,7.804,5.944,8.64
				c3.775,1.727,8.17-1.061,12.364-0.24c0-19.68,0-39.359,0-59.039c-4.518,0-9.036,0-13.554,0
				c0.021,11.418-0.118,22.999,0.238,34.08C350.124,38.918,343.152,29.201,337.102,20.32z"/>
		</g>
		<path fill="#ED1C24" stroke="#231F20" stroke-miterlimit="10" d="M236.796,84.58"/>
		<path fill="#ED1C24" stroke="#231F20" stroke-miterlimit="10" d="M0,84.58"/>
	</g>
</g>
<rect y="0.08" fill-rule="evenodd" clip-rule="evenodd" fill="none" width="439" height="166"/>
</svg>
