<?xml version="1.0" encoding="utf-8"?>
<!-- Generator: Adobe Illustrator 15.1.0, SVG Export Plug-In . SVG Version: 6.00 Build 0)  -->
<!DOCTYPE svg PUBLIC "-//W3C//DTD SVG 1.1//EN" "http://www.w3.org/Graphics/SVG/1.1/DTD/svg11.dtd">
<svg version="1.1" id="Layer_1" xmlns="http://www.w3.org/2000/svg" xmlns:xlink="http://www.w3.org/1999/xlink" x="0px" y="0px"
	 width="441px" height="166.08px" viewBox="0 0 441 166.08" enable-background="new 0 0 441 166.08" xml:space="preserve">
<path fill="#2E8B57" d="M0.356,0c78.784,0,157.578,0,236.36,0c0,28,0,56,0,84c-78.869,0-157.728,0-236.598,0
	c0-27.76,0-55.52,0-83.279C0.099,0.379,0.08,0.041,0.356,0z M50.292,47.75c-6.702-0.736-15.481,1.007-21.4-0.96
	c0-7.681,0-24.95,0-32.63c-4.597,0-9.195,0-13.792,0c-0.521,19.314-0.521,39.154-0.476,59.04c4.756,0,9.512,0,14.268,0
	c0.105-3.092-0.017-7.223-0.051-9.16c-0.01-0.548,21.972-0.5,21.927,0.877c-0.087,2.679,0,5.362,0,8.043
	c4.403,0.518,9.717,0.112,14.505,0.24c0-19.761,0-39.521,0-59.28c-4.756,0-9.512,0-14.267,0
	C50.378,21.362,51.895,40.742,50.292,47.75z M86.198,14.641c0.963,18.732-3.891,43.213,6.896,52.799
	c1.479,1.316,3.442,2.183,5.469,3.121c1.738,0.803,4.232,0.956,5.298,2.391c5.608,7.557,12.139,1.807,12.702,0.525
	c5.796-1.406,12.463-4.973,15.291-9.157c7.743-11.461,2.414-33.619,4.28-50.4c-4.835,0-9.67,0-14.506,0
	c-0.715,8.152,0.477,18.379,0.477,27.12c0,3.271-2.521,8.666-9.688,10.416c-8.5-0.417-12.456-4.154-12.428-9.456
	c0.049-9.093,1.009-19.514,0.476-28.08c-4.676,0-9.354,0-14.029,0C86.158,13.961,86.177,14.299,86.198,14.641z M156.107,14.16
	c-1.184,19.016,0.41,39.418-0.477,58.8c4.201,0,8.402,0,12.604,0c0.529-11.545-0.109-24.271,0.476-35.76
	c5.073,9.359,16.738,35.673,18.29,35.673c1.54,0,11.521-21.358,14.762-28.713c1.074-2.439,1.815-5.229,3.805-6.721
	c0.02,11.9,0.396,23.441,0.237,35.521c4.069-0.133,8.683,0.283,12.365-0.238c0.411-19.187,0.181-39.021,0.238-58.562
	c-5.152,0-10.305,0-15.457,0c-5.697,10.889-10.195,22.989-15.932,33.84c-5.456-10.973-10.251-22.613-15.693-33.6
	C166.586,13.453,161.416,14.32,156.107,14.16z"/>
<rect y="79.735" fill="#2E8B57" width="236.333" height="8.356"/>
<rect x="-137.993" y="-384.91" fill="none" width="439" height="166"/>
<path fill="#2E8B57" d="M0,88.03"/>
<rect x="-125.326" y="-401.576" fill="none" width="439" height="166"/>
<path fill="#2E8B57" d="M0.248,84.24c78.785,0,157.578,0,236.359,0c0,27.28,0,54.56,0,81.84c-78.867,0-157.729,0-236.599,0
	c0-27.04,0-54.08,0-81.12C-0.009,84.62-0.028,84.28,0.248,84.24z M98.167,121.703c-1.173,3.44-4.103,7.739-4.167,11.167
	c2.9,1.23,11.624-1.725,14.679-0.391c-0.688,0.903-1.883,1.301-3.566,1.201c-0.17,4.327,6.039,2.225,6.896,5.52
	c-2.297,0.076-3.194-1.256-5.469-1.2c0.306,2.492,4.23,2.606,4.041,4.8c-2.362-0.174-2.437-2.66-4.992-2.64
	c-0.178,2.42,3.01,2.72,2.615,4.56c-2.235-0.463-2.301-3.119-4.52-3.6c-0.393,1.922,1.203,3.102,0.715,4.32
	c-1.311-0.357-1.685-1.66-1.666-3.36c-2.338-1.664-3.531-4.485-6.312-5.703c-0.259-0.112-4.465-0.923-4.754-1.007
	c-0.906,6.125-6.431,11.027-6.167,18.333c0.249-0.003,5.251-0.164,5.5-0.167c13.729-0.115,29.956,0.308,43.333-0.166
	c0.316-0.012,1.351-0.321,1.667-0.334c-2.955-10.938-6.862-21.924-11-31.666c-0.21,0.064-2.236,0.439-2.443,0.504
	c-2.917,0.909-5.522,1.82-7.22,3.887c-1.012,1.23-1.125,3.342-3.092,3.6c0.203-1.875,1.924-2.219,1.664-4.561
	c-2.604,0.25-2.619,3.115-5.707,2.881c0.668-2.207,3.694-2.031,4.043-4.561c-2.552-0.096-3.154,1.775-5.707,1.68
	c0.735-2.297,3.914-2.129,4.994-4.08c-1.629-0.945-4.469,0.816-5.707-0.479c0.562-1.66,2.84-0.717,4.28-0.96
	c1.984-0.339,3.156-1.3,3.804-2.642c-1.451-0.535-3.201-0.77-3.328-2.642c4.254-0.108,6.665,4.081,10.305,3.101
	c0.207-0.057,1.899-0.474,2.114-0.562c-1.077-4.188-0.667-2.166-4.5-12c-1.167-3.333-0.333-6.5-5.542-12.375
	c-0.303-0.014-0.328-0.309-0.713-0.24C105.5,90.87,101.628,111.558,98.167,121.703z M161.468,153.12c4.438,0,8.877,0,13.316,0
	c0-11.68,0-23.359,0-35.04c6.295,7.331,12.918,17.522,18.784,26.399c1.382,2.094,4.349,7.701,6.421,8.641
	c3.951,1.793,7.982-1.26,12.364,0c0-20.16,0-40.32,0-60.48c-4.519,0-9.036,0-13.555,0c-0.152,11.688,0.309,23.992-0.238,35.28
	c-5.923-7.798-12.616-17.866-18.785-26.64c-1.251-1.779-4.663-8.041-6.657-8.641c-3.604-1.082-7.697,0.821-11.177,0
	C160.975,111.983,161.685,133.021,161.468,153.12z"/>
<g>
	<path fill="#D88F20" d="M275.875,9.29c3.625,0.75,6.375,9.5,7.375,14.125c0.867,4.01,2.777,6.838,3.75,10.625
		c-1.521,0.529-4.25,1.48-5.5,0.688c-2.704-1.716-5.298-3.022-8.91-2.868c0.296,1.744,2.229,2.08,3.9,2.64
		c-0.622,1.394-2.191,2.312-4.459,2.64c-1.707,0.248-4.342-0.701-5.016,0.961c1.451,1.296,4.778-0.467,6.688,0.479
		c-1.159,2.042-5.059,1.725-5.854,4.08c2.99,0.096,3.696-1.776,6.688-1.681c-0.182,2.565-3.824,2.146-4.458,4.32
		c3.116,0.843,3.543-2.706,6.688-2.64c-0.031,2.133-1.82,2.751-2.229,4.561c2.469-0.246,2.606-2.567,3.901-3.841
		c2.133-2.102,6.566-3.479,10.309-4.339c4.854,11.036,7.754,18.462,11.428,31.219c-15.928,1.531-33.166,1.072-50.678,0.531
		c-0.04-7.154,4.273-11.055,5.812-16.852c3.719,1.117,5.238,4.128,8.082,6c0.168,1.536,0.478,2.949,1.948,3.36
		c0.646-1.282-1.223-2.462-0.835-4.319c2.579,0.498,2.755,3.066,5.294,3.6c0.378-1.769-3.139-2.254-3.063-4.561
		c2.967,0.006,3.191,2.37,5.853,2.641c0.31-2.27-4.336-2.344-4.737-4.801c2.689-0.076,3.743,1.256,6.408,1.201
		c-0.898-3.385-8.301-1.171-8.081-5.521c1.874,0.015,3.539-0.152,4.181-1.2c-4.594-1.658-9.578,2.261-12.541-0.24
		C262.715,36.074,267.375,10.79,275.875,9.29z"/>
	<path fill="#D88F20" d="M274.404,97.88c-14.446,1.283-24.873,16.219-23.777,32.16c0.604,8.775,4.566,15.613,9.036,21.602
		c5.995,3.6,12.501,9.229,22.353,6.719c3.09-0.785,6.434-2.256,9.512-3.357c3.326-1.189,6.32-2.645,7.607-5.277
		c-0.328-7.242-0.23-14.969-0.236-22.562c-3.885,0-7.769,0-11.649,0c0,5.04,0,10.08,0,15.119c-2.808,0.619-4.586,2.338-7.371,2.641
		c-7.323,0.796-12.151-4.361-14.026-9.84c1.971-2.562,6.314-3.42,6.42-6.96c0.11-3.935-4.521-5.082-5.707-8.642
		c2.586-4.279,6.396-8.131,12.361-8.159c5.824-0.028,9.149,3.682,12.844,6.239c3.004-3.209,5.688-6.739,7.606-11.041
		C293.305,101.255,285.402,96.903,274.404,97.88z"/>
	<path fill="#D88F20" d="M395.438,99.08c-0.547,19.289-0.082,39.595-0.234,59.278c30.288,0,4.188,0,34.479,0
		c0-4.641,0-9.278,0-13.92c-7.123-0.09-14.711,0.289-21.162-0.479c0-15.2,0-30.397,0-45.603c-4.278,0-8.562,0-12.84,0
		C395.398,98.399,395.419,98.739,395.438,99.08z"/>
	<path fill="#D88F20" d="M324.578,157.88c31.129,0,9.531,0,40.661,0c0-4.238,0-8.479,0-12.72c-8.517-0.736-18.832,0.899-26.87-0.722
		c0-3.278,0-6.562,0-9.84c7.927,0,15.854,0,23.779,0c0-4.16,0-8.318,0-12.479c-8.16,0.155-15.801-0.213-23.779-0.24
		c0.158-3.7-0.592-6.948,0.238-10.079c8.641,0,17.279,0,25.918,0c0-4.318,0-8.641,0-12.961c-13.077,0-26.156,0-39.233,0
		C323.887,117.369,324.875,138.258,324.578,157.88z"/>
	<path fill="#D88F20" d="M337.102,17.32c-1.584-2.327-4.295-7.492-6.658-8.4c-4.041-1.553-7.709,1.535-11.889,0.48
		c0,19.68,0,39.359,0,59.039c4.598,0,9.194,0,13.793,0c0.156-11.04-0.314-22.719,0.236-33.359
		c5.379,7.61,12.666,16.504,18.548,24.96c1.313,1.89,4.116,7.804,5.944,8.64c3.775,1.727,8.17-1.061,12.363-0.24
		c0-19.68,0-39.359,0-59.039c-4.52,0-9.035,0-13.555,0c0.021,11.418-0.117,22.999,0.237,34.08
		C350.124,35.918,343.152,26.201,337.102,17.32z"/>
</g>
<text transform="matrix(1 0 0 1 373.1074 85.8652)" fill="#D88F20" font-family="'Helvetica'" font-size="4.6071">      </text>
</svg>
