<?xml version="1.0" encoding="utf-8"?>
<!-- Generator: Adobe Illustrator 15.1.0, SVG Export Plug-In . SVG Version: 6.00 Build 0)  -->
<!DOCTYPE svg PUBLIC "-//W3C//DTD SVG 1.1//EN" "http://www.w3.org/Graphics/SVG/1.1/DTD/svg11.dtd">
<svg version="1.1" id="Layer_1" xmlns="http://www.w3.org/2000/svg" xmlns:xlink="http://www.w3.org/1999/xlink" x="0px" y="0px"
	 width="495px" height="191px" viewBox="0 0 495 191" enable-background="new 0 0 495 191" xml:space="preserve">
<g>
	<path fill-rule="evenodd" clip-rule="evenodd" fill="#603913" d="M-0.792-1.509c-0.217,0.423-0.537,0.743-0.96,0.96
		c0-0.32,0-0.64,0-0.96C-1.432-1.509-1.111-1.509-0.792-1.509z"/>
	<path fill-rule="evenodd" clip-rule="evenodd" fill="#603913" d="M-0.792-1.509c165.448,0,330.861,0,496.32,0
		c0.135,0.346,0.375,0.585,0.72,0.72c0.561,64.001,0.08,129.039,0.24,193.44c-166.093,0-332.138,0-498.24,0
		c0-64.399,0-128.8,0-193.2C-1.328-0.766-1.008-1.085-0.792-1.509z M1.369,2.331c0,62.321,0,124.64,0,186.96c164,0,328,0,492,0
		c0-62.48,0-124.959,0-187.44c-0.053-0.187-0.2-0.279-0.479-0.24c-163.761,0-327.52,0-491.28,0C1.329,1.651,1.348,1.991,1.369,2.331
		z"/>
	<path fill-rule="evenodd" clip-rule="evenodd" fill="#603913" d="M12.168,9.771c79.683,0,159.357,0,239.041,0
		c1.755-0.315-0.197,3.078,1.199,3.12c77.52,0.16,155.682-0.32,232.801,0.24c-0.16,53.919,0.319,108.481-0.24,162
		c-77.441,0-154.877,0-232.32,0c-1.816-0.377,0.377,3.257-1.439,2.881c-79.92,0-159.841,0-239.76,0c0-55.921,0-111.84,0-167.761
		C11.625,10.027,11.885,9.888,12.168,9.771z M252.169,16.731c0,51.762,0,103.519,0,155.28c76.559,0,153.12,0,229.68,0
		c0-51.999,0-104.001,0-156c-76.478,0-152.962,0-229.44,0C252.129,16.052,252.148,16.391,252.169,16.731z M62.809,48.411
		c-7.123-0.034-16.102,1.091-22.08-0.72c-0.086-7.834,0.217-16.057-0.24-23.52c-4.479,0-8.96,0-13.44,0
		c-0.353,19.853-0.574,39.546-0.24,59.52c4.64,0,9.28,0,13.92,0c0.419-8.052-1.174-16.668,1.2-22.8
		c7.211,0.34,15.439-1.221,21.36,0.72c0,7.36,0,14.72,0,22.08c4.469,0.6,9.824,0.085,14.4,0c-0.387-19.473,0.334-39.973-0.24-59.76
		c-4.56,0-9.12,0-13.68,0C62.609,31.137,64.592,41.34,62.809,48.411z M99.289,24.651c1.236,20.629-5.105,45.588,8.64,54.96
		c2.119,1.445,5.94,3.191,9.36,4.08c4.051,1.052,7.914,0.744,12,0c2.052-0.374,4.364-0.597,6.24-1.2
		c4.027-1.295,7.796-4.441,9.84-7.44c7.843-11.503,2.227-32.996,4.08-50.88c-4.332-0.469-9.455-0.146-14.16-0.24
		c-0.861,8.656,0.392,18.924,0.48,27.36c0.033,3.181,0.465,6.733-0.24,9.36c-0.59,2.201-3.53,5.656-5.76,5.76
		c-2.162,0.101-3.928-2.236-6.72-2.16c-3.003,0.083-3.725,1.809-6.72,2.64c-2.144-1.933-3.099-5.006-3.36-8.4
		c-0.808-10.48,1.129-23.398,0.48-34.32c-4.166-0.554-9.356-0.084-13.92-0.24C99.249,23.972,99.268,24.311,99.289,24.651z
		 M170.088,24.411c-1.002,19.421,0.397,39.349-0.24,59.04c4.08,0,8.16,0,12.24,0c0.35-5.772,0.24-12.146,0.24-18.48
		c0-6.251-0.416-12.659,0.72-18c4.649,10.151,9.248,20.352,13.68,30.72c2.96,0,5.92,0,8.88,0c2.537-4.588,4.896-10.013,7.2-15.36
		c1.701-3.948,3.037-8.245,5.04-11.76c0.577-1.014,1.18-2.562,2.64-2.64c-0.174,12.094,0.265,23.576,0.24,35.52
		c3.754,0.116,8.341,0.579,12,0c0.451-19.309,0.157-39.363,0.24-59.04c-4.665-0.455-10.086-0.155-15.12-0.24
		c-2.89,5.543-5.716,11.33-8.4,17.28c-2.657,5.89-4.737,12.184-8.4,17.28c-5.175-11.385-10.434-22.687-15.6-34.08
		C180.709,23.658,175.437,24.618,170.088,24.411z M111.289,143.691c3.379,1.756,7.391-1.771,10.8,0
		c-0.577,1.263-2.144,1.536-3.84,1.68c0.412,3.828,6.726,1.754,7.2,5.521c-2.223,0.22-3.67-1.606-5.52-0.96
		c1.033,2.007,4.163,1.917,4.32,4.8c-2.368-0.353-2.873-2.567-5.28-2.88c0.014,2.386,2.727,2.073,2.64,4.56
		c-2.48-0.319-2.624-2.977-4.8-3.6c-0.12,1.617,1.749,3.06,0.48,4.319c-1.172-0.588-1.563-1.956-1.68-3.6
		c-2.503-1.737-3.575-4.905-6.96-5.76c-0.89,6.069-4.557,9.363-4.56,16.319c14.4,0,28.8,0,43.2,0
		c-2.397-11.442-6.985-20.694-10.56-30.96c-2.933,1.205-5.811,1.347-7.68,3.36c-1.269,1.368-1.159,4.422-3.84,4.32
		c0.186-1.975,1.894-2.427,1.92-4.561c-2.283,0.217-3.309,3.913-5.76,2.4c0.566-2.074,3.421-1.858,3.84-4.08
		c-2.438-0.065-3.413,2.162-5.76,1.44c0.543-2.417,4.015-1.906,4.8-4.08c-2.091-0.345-4.449,0.972-5.52-0.48
		c0.333-1.878,2.39-0.802,3.84-0.96c2.062-0.226,3.611-1.062,4.32-2.64c-1.729-0.352-3.103-1.058-3.36-2.88
		c4.97-0.178,7.159,4.134,11.04,3.119c-2.381-8.658-5.089-16.99-8.16-24.959c-0.331,0.01-0.527-0.113-0.72-0.24
		C120.794,116.396,115.267,129.27,111.289,143.691z M190.729,107.691c-1.098-1.51-2.667-3.935-3.6-4.32
		c-3.618-1.495-7.54,1.35-11.04,0c-0.854,19.705-0.342,40.777-0.48,61.2c4.4,0,8.8,0,13.2,0c0-11.92,0-23.84,0-35.76
		c6.425,7.649,13.519,17.875,19.44,27.359c1.669,2.674,4.061,7.727,6.96,8.641c3.901,1.229,7.441-1.159,11.52-0.48
		c0-20.239,0-40.479,0-60.72c-4.173-0.447-9.358-0.124-13.2-0.24c-0.114,12.046,0.256,24.576-0.24,36.24
		C205.8,130.437,198.167,117.916,190.729,107.691z"/>
	<path fill-rule="evenodd" clip-rule="evenodd" fill="#603913" d="M360.648,48.891c-0.092,10.24-0.457,22.255-0.479,33.36
		c-4.641,0-9.28,0-13.921,0c0-19.6,0-39.2,0-58.8c4.344,0.553,8.115-1.881,11.761-0.72c3.197,1.018,5.062,5.266,6.96,8.16
		c4.175,6.366,8.435,11.749,12.72,17.52c2.253,3.035,4.043,6.218,6.72,8.4c-0.142-11.138-0.443-22.116-0.479-33.36
		c3.818-0.901,9.129-0.311,13.68-0.48c0,19.76,0,39.52,0,59.28c-4.074-0.622-8,2.124-11.76,0.48c-1.959-0.856-4.564-5.73-6.24-8.16
		c-5.853-8.489-13.74-18.547-18.96-25.44C360.648,49.051,360.648,48.971,360.648,48.891z"/>
	<path fill-rule="evenodd" clip-rule="evenodd" fill="#603913" d="M292.488,24.891c1.271,14.866,0.143,30.845,0.48,46.8
		c-1.512,0.328-3.163,0.517-4.08,1.44c-4.092-2.788-7.665-6.095-10.561-10.08C282.984,50.267,287.693,37.536,292.488,24.891z"/>
	<path fill-rule="evenodd" clip-rule="evenodd" fill="#603913" d="M293.929,26.331c5.203,11.757,8.778,25.142,13.439,37.44
		c-2.184,4.056-6.339,6.141-8.64,10.08c-1.688-0.713-3.003-1.797-4.8-2.4C293.929,56.411,293.929,41.372,293.929,26.331z"/>
	<path fill-rule="evenodd" clip-rule="evenodd" fill="#603913" d="M286.009,81.051c-0.115,2.595,2.13,2.83,2.399,5.04
		c-6.16,0-12.319,0-18.479,0c0.601-1.799,0.765-4.035,2.16-5.04C276.729,81.051,281.368,81.051,286.009,81.051z"/>
	<path fill-rule="evenodd" clip-rule="evenodd" fill="#603913" d="M313.368,81.051c0.035,2.045,1.382,2.779,1.2,5.04
		c-5.6,0-11.2,0-16.8,0c-0.231-1.786,2.694-2.4,2.4-5.04C304.568,81.051,308.969,81.051,313.368,81.051z"/>
	<path fill-rule="evenodd" clip-rule="evenodd" fill="#603913" d="M317.209,113.691c-1.99,4.41-4.354,8.447-8.16,11.04
		c-2.273-1.681-4.24-4.15-6.96-5.28c-7.684-3.191-15.401,1.667-18,7.44c1.028,3.726,5.622,4.146,5.76,8.159
		c0.136,3.981-4.184,4.787-6.48,7.44c1.215,2.716,2.151,5.462,4.561,7.44c4.23,3.473,12.129,2.918,16.8,0
		c0.053-5.148-0.166-10.566,0.24-15.36c4,0,8,0,12,0c-0.611,7.096,0.344,15.973,0,22.8c-1.125,2.992-5.211,4.657-9.12,6
		c-5.156,1.771-10.246,4.688-16.8,3.36c-3.359-0.681-7.426-3.442-10.561-5.28c-1.194-0.7-2.588-1.249-3.359-1.92
		c-1.293-1.125-2.3-3.342-3.36-5.04c-3.112-4.984-6-11.928-6-19.2c0-14.697,9.623-29.151,23.76-30.48
		C302.836,103.749,310.889,108.047,317.209,113.691z"/>
	<path fill-rule="evenodd" clip-rule="evenodd" fill="#603913" d="M435.289,105.051c4.239,0,8.479,0,12.72,0
		c0.547,15.133,0.09,31.27,0.239,46.8c7.12,0,14.24,0,21.36,0c0.414,4.386,0.183,9.417,0.24,14.16c-11.76,0-23.521,0-35.28,0
		c0.11-20.051-0.25-40.57,0.24-60.241C434.798,105.361,434.987,105.149,435.289,105.051z"/>
	<path fill-rule="evenodd" clip-rule="evenodd" fill="#603913" d="M353.929,105.531c13.12,0,26.24,0,39.36,0c0,4.479,0,8.96,0,13.44
		c-8.721,0-17.44,0-26.16,0c-0.455,3.019-0.261,7.021,0,10.079c7.747,0.254,15.716,0.284,23.76,0.24c0,4.24,0,8.48,0,12.721
		c-7.92,0-15.84,0-23.76,0c-0.925,2.968-0.075,6.302-0.24,9.84c7.976,1.822,17.789,0.323,27.12,0.72c0,4.32,0,8.64,0,12.96
		c-13.681,0-27.36,0-41.04,0c0.239-19.681-0.526-40.366,0.479-59.28C353.438,105.841,353.627,105.63,353.929,105.531z"/>
</g>
</svg>
